<svg xmlns="http://www.w3.org/2000/svg" viewBox="340.543 366.715 718.587 303.75">
  <defs>
    <style>
      .cls-1 {
        fill: none;
        stroke: #292b2c;
      }
    </style>
  </defs>
  <g id="Symbol_5_1" data-name="Symbol 5 – 1" transform="translate(143 176)">
    <path id="Path_1" data-name="Path 1" class="cls-1" d="M229.274,190.215h65.615v3.808h4.235v-3.808h68.27v3.808h5.838v-3.808h68.077v3.808h5.863v-3.808h66.685v3.808h12.879v-3.808h55.439v3.808H593.3v-3.808h68.125v3.808h5.292v-3.808h66.238v3.808h8.921v-3.808h66.194v3.808h5.649v-3.808H879.61v6.529h5.205v40.635H879.61v208.7h6.021v41.112H879.61v5.773H814.221v-4.1H807.1v4.1H741.376v-4.1h-8.617v4.1H667.085v-4.1h-5.9v4.1H593.1v-4.1h-2.565v-34.61h-9.207v8.727h5.763v21.934h-5.763v8.047h-54.4v-8.047h-6.48V462.984h6.48v-7.071h-8.63v32.954h-5.3v4.1h-65.8v-4.1h-6.335v4.1H374.315v-4.1h-6.792v4.1h-67.28v-4.1h-5.394v4.1H228.591v-8.059h-5.37V441.18h3.285v-3.489H168.043V375.362h3.711v-6.021h-3.711v-56.5h3.711v-4.529h-3.711V244.8h52.388v2.982h6.075v-7.167h-3.285V196.866h6.052Z" transform="translate(30 1)"/>
    <path id="Path_2" data-name="Path 2" class="cls-1" d="M266.95,193.191v44.455h23.016" transform="translate(60.124 1.947)"/>
    <path id="Path_3" data-name="Path 3" class="cls-1" d="M293.938,190.215v48.378" transform="translate(69.588 1)"/>
    <path id="Path_4" data-name="Path 4" class="cls-1" d="M291.638,226.92h5.429" transform="translate(69.305 12.673)"/>
    <path id="Path_5" data-name="Path 5" class="cls-1" d="M304.516,226.92H350.86" transform="translate(73.4 12.673)"/>
    <path id="Path_6" data-name="Path 6" class="cls-1" d="M322.1,237.723V192.95" transform="translate(78.991 1.87)"/>
    <path id="Path_7" data-name="Path 7" class="cls-1" d="M212.627,233.957h48.5V226.95h7.385" transform="translate(44.178 12.682)"/>
    <path id="Path_8" data-name="Path 8" class="cls-1" d="M249.42,232.266v3.383" transform="translate(55.879 14.373)"/>
    <path id="Path_9" data-name="Path 9" class="cls-1" d="M249.42,242.548V363.272" transform="translate(55.879 17.643)"/>
    <path id="Path_10" data-name="Path 10" class="cls-1" d="M168.043,343.259h91.88v15.479h14.341V343.259" transform="translate(30 49.67)"/>
    <path id="Path_11" data-name="Path 11" class="cls-1" d="M212.26,378.011h48.5v8.239h9.908" transform="translate(44.062 60.722)"/>
    <path id="Path_12" data-name="Path 12" class="cls-1" d="M248.635,355v13.163" transform="translate(55.629 53.405)"/>
    <path id="Path_13" data-name="Path 13" class="cls-1" d="M267.08,426.771V384.262h-2.4" transform="translate(60.731 62.71)"/>
    <path id="Path_14" data-name="Path 14" class="cls-1" d="M275.966,384.262h84.295" transform="translate(64.321 62.71)"/>
    <path id="Path_15" data-name="Path 15" class="cls-1" d="M321.479,426.7V384.482" transform="translate(78.795 62.78)"/>
    <path id="Path_16" data-name="Path 16" class="cls-1" d="M346.549,384.262h6.429" transform="translate(86.767 62.71)"/>
    <path id="Path_17" data-name="Path 17" class="cls-1" d="M350.028,431.214V384.391" transform="translate(87.874 62.751)"/>
    <path id="Path_18" data-name="Path 18" class="cls-1" d="M383.222,426.978V383.611H358.975" transform="translate(90.719 62.503)"/>
    <path id="Path_19" data-name="Path 19" class="cls-1" d="M377.372,383.611H379.9" transform="translate(96.57 62.503)"/>
    <path id="Path_20" data-name="Path 20" class="cls-1" d="M387.286,383.611h47.756" transform="translate(99.722 62.503)"/>
    <path id="Path_21" data-name="Path 21" class="cls-1" d="M405.4,431.421V383.738" transform="translate(105.484 62.543)"/>
    <path id="Path_23" data-name="Path 23" class="cls-1" d="M435.024,394.466V383.278h-5.579" transform="translate(113.13 62.397)"/>
    <path id="Path_24" data-name="Path 24" class="cls-1" d="M440.047,391.766h18.06" transform="translate(116.501 65.097)"/>
    <path id="Path_25" data-name="Path 25" class="cls-1" d="M468.935,391.766h16.8" transform="translate(125.688 65.097)"/>
    <path id="Path_26" data-name="Path 26" class="cls-1" d="M488.525,393.084v-9.105h3.727" transform="translate(132.017 62.62)"/>
    <path id="Path_27" data-name="Path 27" class="cls-1" d="M498.943,383.979H545.4" transform="translate(135.231 62.62)"/>
    <path id="Path_28" data-name="Path 28" class="cls-1" d="M515.938,431.313V384.08" transform="translate(140.636 62.652)"/>
    <path id="Path_29" data-name="Path 29" class="cls-1" d="M542.142,383.979H567.5" transform="translate(148.969 62.62)"/>
    <path id="Path_30" data-name="Path 30" class="cls-1" d="M544.427,426.814V384.037" transform="translate(149.696 62.638)"/>
    <path id="Path_31" data-name="Path 31" class="cls-1" d="M569.695,383.979h6.752" transform="translate(157.731 62.62)"/>
    <path id="Path_32" data-name="Path 32" class="cls-1" d="M572.256,431.308V384.1" transform="translate(158.546 62.657)"/>
    <path id="Path_33" data-name="Path 33" class="cls-1" d="M582.106,384.1h47.448" transform="translate(161.678 62.657)"/>
    <path id="Path_34" data-name="Path 34" class="cls-1" d="M600.105,427.066V384.087" transform="translate(167.402 62.654)"/>
    <path id="Path_35" data-name="Path 35" class="cls-1" d="M624.6,384.087h7.736" transform="translate(175.192 62.654)"/>
    <path id="Path_36" data-name="Path 36" class="cls-1" d="M628.285,431.276V384.2" transform="translate(176.364 62.689)"/>
    <path id="Path_37" data-name="Path 37" class="cls-1" d="M637.5,384.087h46.684" transform="translate(179.294 62.654)"/>
    <path id="Path_38" data-name="Path 38" class="cls-1" d="M655.208,384.2v42.941" transform="translate(184.926 62.689)"/>
    <path id="Path_39" data-name="Path 39" class="cls-1" d="M680.439,384.087h6.1" transform="translate(192.949 62.654)"/>
    <path id="Path_40" data-name="Path 40" class="cls-1" d="M682.753,431.281v-47.1" transform="translate(193.685 62.684)"/>
    <path id="Path_41" data-name="Path 41" class="cls-1" d="M693.31,384.087h19.453" transform="translate(197.043 62.654)"/>
    <path id="Path_42" data-name="Path 42" class="cls-1" d="M665.519,408.647h29.3V241.975h-29.3" transform="translate(188.205 17.461)"/>
    <path id="Path_43" data-name="Path 43" class="cls-1" d="M732.278,305.065H547.734" transform="translate(150.747 37.524)"/>
    <path id="Path_44" data-name="Path 44" class="cls-1" d="M326.2,407.784H264.993V242.3H326.2" transform="translate(60.831 17.564)"/>
    <path id="Path_45" data-name="Path 45" class="cls-1" d="M322.193,242.3V407.583" transform="translate(79.022 17.564)"/>
    <path id="Path_46" data-name="Path 46" class="cls-1" d="M332.6,242.3h63.818" transform="translate(82.333 17.564)"/>
    <path id="Path_47" data-name="Path 47" class="cls-1" d="M389.2,242.3h33.244V407.784H389.2" transform="translate(100.331 17.564)"/>
    <path id="Path_48" data-name="Path 48" class="cls-1" d="M396.516,367.855H332.3" transform="translate(82.237 57.492)"/>
    <path id="Path_49" data-name="Path 49" class="cls-1" d="M326.158,305.078H265.13" transform="translate(60.875 37.528)"/>
    <path id="Path_50" data-name="Path 50" class="cls-1" d="M332.6,324.819h60.479V243" transform="translate(82.333 17.787)"/>
    <path id="Path_51" data-name="Path 51" class="cls-1" d="M595.081,241.975h-88.5v71.916h9.136V337.4h-9.136v71.25h88.5" transform="translate(137.659 17.461)"/>
    <path id="Path_52" data-name="Path 52" class="cls-1" d="M581.741,241.975h46.58" transform="translate(161.562 17.461)"/>
    <path id="Path_53" data-name="Path 53" class="cls-1" d="M625.895,241.975h39.351V407.832" transform="translate(175.604 17.461)"/>
    <path id="Path_54" data-name="Path 54" class="cls-1" d="M625.895,370.177h39.351v-7.233" transform="translate(175.604 55.931)"/>
    <path id="Path_55" data-name="Path 55" class="cls-1" d="M581.741,367.814h46.678" transform="translate(161.562 57.479)"/>
    <path id="Path_56" data-name="Path 56" class="cls-1" d="M347.215,226.791h5.819" transform="translate(86.979 12.632)"/>
    <path id="Path_57" data-name="Path 57" class="cls-1" d="M349.423,190.215v48.394" transform="translate(87.681 1)"/>
    <path id="Path_58" data-name="Path 58" class="cls-1" d="M382.7,194.106v44.476H359.658" transform="translate(90.936 1.153)"/>
    <path id="Path_59" data-name="Path 59" class="cls-1" d="M386.724,227.028h48.7" transform="translate(99.544 12.707)"/>
    <path id="Path_60" data-name="Path 60" class="cls-1" d="M405.2,190.215V239" transform="translate(105.42 1)"/>
    <path id="Path_61" data-name="Path 61" class="cls-1" d="M434.186,193.351v44.388H430" transform="translate(113.308 1.997)"/>
    <path id="Path_62" data-name="Path 62" class="cls-1" d="M440.754,227.028h-7.563" transform="translate(114.321 12.707)"/>
    <path id="Path_63" data-name="Path 63" class="cls-1" d="M489.331,193.113v44.7h3.922" transform="translate(130.281 1.922)"/>
    <path id="Path_64" data-name="Path 64" class="cls-1" d="M522.268,190.215v48.521H545.5" transform="translate(135.14 1)"/>
    <path id="Path_65" data-name="Path 65" class="cls-1" d="M544.812,193.283v44.468h22.909" transform="translate(148.955 1.976)"/>
    <path id="Path_66" data-name="Path 66" class="cls-1" d="M572.488,190.215V238.8h2.81" transform="translate(157.77 1)"/>
    <path id="Path_67" data-name="Path 67" class="cls-1" d="M604.932,193.283V237.8h24.137" transform="translate(161.661 1.976)"/>
    <path id="Path_68" data-name="Path 68" class="cls-1" d="M627.912,190.215v48.661H650.78" transform="translate(175.511 1)"/>
    <path id="Path_69" data-name="Path 69" class="cls-1" d="M656.526,193.283v44.561h-3.21" transform="translate(184.324 1.976)"/>
    <path id="Path_70" data-name="Path 70" class="cls-1" d="M683.145,190.215v48.617h-2.567" transform="translate(192.994 1)"/>
    <path id="Path_71" data-name="Path 71" class="cls-1" d="M693.114,227.134h19.259" transform="translate(196.98 12.741)"/>
    <path id="Path_72" data-name="Path 72" class="cls-1" d="M599.411,241.975V408.441" transform="translate(167.182 17.461)"/>
  </g>
</svg>
